<svg width="40" height="41" viewBox="0 0 40 41" fill="none" xmlns="http://www.w3.org/2000/svg">
<path fill-rule="evenodd" clip-rule="evenodd" d="M9.5 0C8.67163 0 8 0.671631 8 1.5V3H7C3.13403 3 0 6.13403 0 10V25C0 28.866 3.13403 32 7 32H19.1063C19.8342 37.0884 24.2103 41 29.5 41C35.299 41 40 36.299 40 30.5C40 25.2103 36.0884 20.8342 31 20.1063V10C31 6.13403 27.866 3 24 3H23V1.5C23 0.671631 22.3284 0 21.5 0C20.6716 0 20 0.671631 20 1.5V3H11V1.5C11 0.671631 10.3284 0 9.5 0ZM28 20.1063C23.4015 20.7642 19.7642 24.4015 19.1063 29H7C4.79089 29 3 27.2091 3 25V15H28V20.1063ZM20 7.5V6H11V7.5C11 8.32837 10.3284 9 9.5 9C8.67163 9 8 8.32837 8 7.5V6H7C4.79089 6 3 7.79089 3 10V12H28V10C28 7.79089 26.2091 6 24 6H23V7.5C23 8.32837 22.3284 9 21.5 9C20.6716 9 20 8.32837 20 7.5ZM37 30.5C37 34.6421 33.6421 38 29.5 38C25.3579 38 22 34.6421 22 30.5C22 26.3579 25.3579 23 29.5 23C33.6421 23 37 26.3579 37 30.5ZM28 27.5C28 26.6716 28.6716 26 29.5 26C30.3284 26 31 26.6716 31 27.5V29H32.5C33.3284 29 34 29.6716 34 30.5C34 31.3284 33.3284 32 32.5 32H31V33.5C31 34.3284 30.3284 35 29.5 35C28.6716 35 28 34.3284 28 33.5V32H26.5C25.6716 32 25 31.3284 25 30.5C25 29.6716 25.6716 29 26.5 29H28V27.5Z" fill="#205072"/>
</svg>
