<svg width="40" height="41" viewBox="0 0 40 41" fill="none" xmlns="http://www.w3.org/2000/svg">
<path fill-rule="evenodd" clip-rule="evenodd" d="M8 1.5C8 0.671631 8.67163 0 9.5 0C10.3284 0 11 0.671631 11 1.5V3H20V1.5C20 0.671631 20.6716 0 21.5 0C22.3284 0 23 0.671631 23 1.5V3H24C27.866 3 31 6.13403 31 10V20.1063C36.0884 20.8342 40 25.2103 40 30.5C40 36.299 35.299 41 29.5 41C24.2103 41 19.8342 37.0884 19.1063 32L19.0151 30.7142C19.0051 30.6443 19 30.5728 19 30.5C19 29.6716 19.6716 29 20.5 29C21.3284 29 22 29.6716 22 30.5C22 34.6421 25.3579 38 29.5 38C33.6421 38 37 34.6421 37 30.5C37 26.3579 33.6421 23 29.5 23C28.1243 23 26.835 23.3704 25.7266 24.017C26.4474 24.1262 27 24.7487 27 25.5C27 26.3284 26.3284 27 25.5 27H22.5C21.6716 27 21 26.3284 21 25.5V22.5C21 21.6716 21.6716 21 22.5 21C23.0344 21 23.5037 21.2795 23.7693 21.7004C25.0203 20.8842 26.4559 20.3273 28 20.1063V15H3V25C3 27.2091 4.79089 29 7 29H15.5C16.3284 29 17 29.6716 17 30.5C17 31.3284 16.3284 32 15.5 32H7C3.13403 32 0 28.866 0 25V10C0 6.13403 3.13403 3 7 3H8V1.5ZM20 6V7.5C20 8.32837 20.6716 9 21.5 9C22.3284 9 23 8.32837 23 7.5V6H24C26.2091 6 28 7.79089 28 10V12H3V10C3 7.79089 4.79089 6 7 6H8V7.5C8 8.32837 8.67163 9 9.5 9C10.3284 9 11 8.32837 11 7.5V6H20Z" fill="#205072"/>
<path d="M28 27.5C28 26.6716 28.6716 26 29.5 26C30.3284 26 31 26.6716 31 27.5V29.8435L32.8851 30.8363C33.6182 31.2223 33.8995 32.1294 33.5135 32.8624C33.1274 33.5953 32.2203 33.8767 31.4873 33.4907L28.8256 32.089C28.3185 31.8219 28.0275 31.3055 28.0242 30.7699C28.0135 30.7112 28.0062 30.6512 28.0026 30.5903C28.0009 30.5604 28 30.5303 28 30.5V27.5Z" fill="#205072"/>
</svg>
