<svg width="39" height="37" viewBox="0 0 39 37" fill="none" xmlns="http://www.w3.org/2000/svg">
<path fill-rule="evenodd" clip-rule="evenodd" d="M17.174 0.724609L20.1927 3.96729L17.4208 5.5072L15.5 3.43787L6.758 12.8575C4.38647 15.2163 3.09998 18.3149 3.09998 21.5988C3.09998 24.8824 4.38654 27.9812 6.72699 30.3092C9.08301 32.6525 12.1985 33.9321 15.5 33.9321C18.8015 33.9321 21.917 32.6371 24.2575 30.3092V30.2937C24.7654 29.7919 25.2236 29.2543 25.6299 28.6866C25.7373 28.5366 25.8411 28.3845 25.9411 28.2305L26.3483 28.4521C27.2065 28.9194 28.1786 29.0876 29.1186 28.9573C29.0879 29.0131 29.0569 29.0687 29.0255 29.1243L28.9648 29.2305L28.931 29.2888C28.9083 29.3278 28.8855 29.3665 28.8625 29.4052C28.2034 30.5139 27.3988 31.5476 26.4585 32.4829C23.529 35.3966 19.6385 37 15.5 37C11.3615 37 7.47101 35.3966 4.5415 32.4829C1.612 29.5692 0 25.6996 0 21.5834C0 17.467 1.612 13.5975 4.5415 10.6837L13.826 0.709106C14.26 0.262085 14.88 0 15.5 0C16.12 0 16.74 0.262085 17.174 0.724609ZM15.314 27.7654C13.6555 27.7654 12.1055 27.1179 10.9275 25.9617C9.74951 24.79 9.11401 23.2483 9.11401 21.5988C9.11401 20.7509 8.4165 20.0571 7.56403 20.0571C6.71149 20.0571 6.01404 20.7509 6.01404 21.5988C6.01404 24.0654 6.97498 26.3933 8.742 28.1354C10.4935 29.8774 12.834 30.8488 15.314 30.8488C16.1665 30.8488 16.864 30.155 16.864 29.3071C16.864 28.4591 16.1665 27.7654 15.314 27.7654ZM29.2172 3.18262C28.7661 2.93701 28.2206 2.93933 27.7715 3.18872L18.7715 8.18872C18.2953 8.45337 18 8.9552 18 9.5V10.3564V10.6V19.6C18 20.1493 18.3003 20.6548 18.7828 20.9174L27.7828 25.8174C28.2339 26.063 28.7794 26.0607 29.2285 25.8113L38.2285 20.8113C38.7047 20.5466 39 20.0448 39 19.5V10.5V10.1263V9.40002C39 8.85071 38.6997 8.34521 38.2172 8.08264L29.2172 3.18262ZM35.3874 9.95776L28.5073 6.21191L21.6126 10.0422L28.4927 13.7881L35.3874 9.95776ZM21 13.1246V18.7087L27 21.9755V16.3912L21 13.1246ZM36 18.6174L30 21.9507V16.3826L36 13.0493V18.6174Z" fill="#E7B7C8"/>
</svg>
