<svg width="37" height="43" viewBox="0 0 37 43" fill="none" xmlns="http://www.w3.org/2000/svg">
<path fill-rule="evenodd" clip-rule="evenodd" d="M12.7897 17.422C13.4517 17.1185 14.1715 16.9614 14.8998 16.9614C15.6281 16.9614 16.3478 17.1185 17.0099 17.422C17.5662 17.677 18.0707 18.0303 18.4998 18.464C18.9288 18.0303 19.4334 17.677 19.9897 17.422C20.6517 17.1185 21.3715 16.9614 22.0998 16.9614C22.8281 16.9614 23.5478 17.1185 24.2099 17.422C24.8514 17.7161 25.4242 18.1409 25.8916 18.6689C26.4051 19.179 26.8145 19.7844 27.0968 20.4514C27.3876 21.1388 27.5375 21.8776 27.5375 22.624C27.5375 23.3704 27.3876 24.1092 27.0968 24.7966C26.8075 25.4802 26.3846 26.0992 25.853 26.6171L24.9752 27.495L19.7395 33.0298C19.4562 33.3293 19.0621 33.499 18.6498 33.499L18.6463 33.4991C18.6243 33.4992 18.5182 33.4999 18.4115 33.4892C18.2556 33.4737 18.05 33.4324 17.829 33.3219C17.6336 33.2242 17.4982 33.1073 17.4354 33.0507C17.3808 33.0016 17.3256 32.9462 17.2966 32.9171L17.2891 32.9097C17.2847 32.9052 17.2802 32.9008 17.2758 32.8963C17.2705 32.8908 17.2653 32.8853 17.2601 32.8798L12.0244 27.345L11.1391 26.4597C11.133 26.4536 11.127 26.4475 11.121 26.4413C11.1155 26.4356 11.11 26.4298 11.1046 26.424C10.1213 25.3733 9.57422 23.9881 9.57422 22.549C9.57422 21.1202 10.1136 19.7444 11.0838 18.6964C11.5556 18.1556 12.1371 17.7211 12.7897 17.422ZM13.3408 20.6727C13.326 20.6901 13.3107 20.7071 13.295 20.724C12.8319 21.2188 12.5742 21.8713 12.5742 22.549C12.5742 23.2194 12.8263 23.865 13.28 24.3579L14.1604 25.2384C14.1703 25.2482 14.1799 25.2581 14.1895 25.2682L18.5707 29.8998L22.8101 25.4182C22.8196 25.4081 22.8293 25.3982 22.8391 25.3884L23.7391 24.4884L23.7554 24.4723C24.0028 24.2323 24.1996 23.945 24.3339 23.6275C24.4683 23.31 24.5375 22.9688 24.5375 22.624C24.5375 22.2793 24.4683 21.938 24.3339 21.6205C24.1996 21.303 24.0028 21.0158 23.7554 20.7757C23.7233 20.7446 23.6926 20.712 23.6634 20.6782C23.4696 20.4533 23.2297 20.2728 22.9598 20.1491C22.69 20.0255 22.3966 19.9614 22.0998 19.9614C21.8029 19.9614 21.5096 20.0255 21.2397 20.1491C20.9699 20.2728 20.7299 20.4533 20.5361 20.6782C20.5119 20.7063 20.4867 20.7335 20.4604 20.7597L19.7104 21.5097L19.7063 21.5139C19.6838 21.5366 19.5938 21.6279 19.4978 21.7047C19.4024 21.781 19.0442 22.0615 18.4998 22.0615C17.9553 22.0615 17.5972 21.781 17.5018 21.7047C17.4058 21.6279 17.3157 21.5366 17.2933 21.5139L17.2891 21.5097L16.5391 20.7597C16.5129 20.7335 16.4876 20.7063 16.4634 20.6782C16.2696 20.4533 16.0297 20.2728 15.7598 20.1491C15.49 20.0255 15.1966 19.9614 14.8998 19.9614C14.6029 19.9614 14.3096 20.0255 14.0397 20.1491C13.7721 20.2718 13.5338 20.4504 13.3408 20.6727Z" fill="white"/>
<path fill-rule="evenodd" clip-rule="evenodd" d="M14 0.5C13.1716 0.5 12.5 1.17157 12.5 2C12.5 2.82843 13.1716 3.5 14 3.5H17V6.56161C7.7607 7.32384 0.5 15.064 0.5 24.5C0.5 34.4411 8.55887 42.5 18.5 42.5C28.4411 42.5 36.5 34.4411 36.5 24.5C36.5 15.064 29.2393 7.32384 20 6.56161V3.5H23C23.8284 3.5 24.5 2.82843 24.5 2C24.5 1.17157 23.8284 0.5 23 0.5H14ZM18.5 9.5C10.2157 9.5 3.5 16.2157 3.5 24.5C3.5 32.7843 10.2157 39.5 18.5 39.5C26.7843 39.5 33.5 32.7843 33.5 24.5C33.5 16.2157 26.7843 9.5 18.5 9.5Z" fill="white"/>
</svg>
