<svg width="31" height="37" viewBox="0 0 31 37" fill="none" xmlns="http://www.w3.org/2000/svg">
<path d="M26.474 10.7146L17.174 0.724583C16.74 0.262083 16.12 0 15.5 0C14.88 0 14.26 0.262083 13.826 0.709167L4.54151 10.6837C1.61201 13.5975 0 17.4671 0 21.5833C0 25.6996 1.61201 29.5692 4.54151 32.4829C7.47101 35.3967 11.3615 37 15.5 37C19.6385 37 23.529 35.3967 26.4585 32.4829C29.388 29.5692 31 25.6996 31 21.5833C31 17.4671 29.388 13.5975 26.474 10.7146ZM24.2575 30.3092C21.917 32.6371 18.8015 33.9321 15.5 33.9321C12.1985 33.9321 9.08302 32.6525 6.72702 30.3092C4.38652 27.9812 3.1 24.8825 3.1 21.5987C3.1 18.315 4.3865 15.2162 6.758 12.8575L15.5 3.43792L24.2575 12.8729C26.598 15.2008 27.9 18.2996 27.9 21.5833C27.9 24.8671 26.6135 27.9658 24.2575 30.2937V30.3092ZM15.314 27.7654C13.6555 27.7654 12.1055 27.1179 10.9275 25.9617C9.7495 24.79 9.11401 23.2483 9.11401 21.5987C9.11401 20.7508 8.41651 20.0571 7.56401 20.0571C6.71151 20.0571 6.01401 20.7508 6.01401 21.5987C6.01401 24.0654 6.975 26.3933 8.742 28.1354C10.4935 29.8775 12.834 30.8487 15.314 30.8487C16.1665 30.8487 16.864 30.155 16.864 29.3071C16.864 28.4592 16.1665 27.7654 15.314 27.7654Z" fill="#FFBE88"/>
</svg>
