<svg width="43" height="38" viewBox="0 0 43 38" fill="none" xmlns="http://www.w3.org/2000/svg">
<path fill-rule="evenodd" clip-rule="evenodd" d="M7.54209 1.41414C8.94178 0.811061 10.4498 0.5 11.9739 0.5C13.498 0.5 15.0061 0.811061 16.4057 1.41414C17.8054 2.01722 19.0673 2.89963 20.1141 4.00734L20.1231 4.01689L21.3489 5.33703L22.5747 4.01693L22.5916 3.99901C23.6532 2.89277 24.9275 2.01255 26.3379 1.41126C27.7483 0.809962 29.2657 0.500003 30.7989 0.500003C32.3321 0.500003 33.8495 0.809962 35.2599 1.41126C36.6666 2.01098 37.938 2.88818 38.9979 3.99038C41.1991 6.2162 42.448 9.21131 42.4799 12.3419C42.5119 15.4765 41.3213 18.5002 39.1607 20.7714C39.1521 20.7805 39.1434 20.7894 39.1346 20.7983L36.743 23.1898L22.9515 37.4311C22.8755 37.5096 22.7911 37.5795 22.6999 37.6397C22.3435 37.8748 21.9259 38.0002 21.4989 38.0002C21.0719 38.0002 20.6543 37.8748 20.2979 37.6397C20.2067 37.5795 20.1224 37.5096 20.0464 37.4311L6.25471 23.1897L3.86325 20.7983C3.8533 20.7883 3.84348 20.7782 3.83381 20.768C1.69286 18.5029 0.5 15.5044 0.5 12.3876C0.5 9.2709 1.69283 6.27238 3.83371 4.00734M11.9739 3.5C10.8581 3.5 9.75396 3.72774 8.72918 4.16928C7.70441 4.61082 6.78054 5.25687 6.01412 6.06787C6.01409 6.06791 6.01415 6.06784 6.01412 6.06787C4.39964 7.77595 3.5 10.0373 3.5 12.3876C3.5 14.7312 4.39437 16.9861 6.0001 18.6925L8.38457 21.0769L8.40145 21.0941L21.4989 34.6187L34.5964 21.0941L34.6133 21.0769L36.9995 18.6907C38.6144 16.9862 39.504 14.7208 39.4801 12.3725C39.456 10.0182 38.5157 7.76584 36.8584 6.09341L36.8416 6.0762C36.06 5.26171 35.1218 4.61364 34.0834 4.17093C33.045 3.72821 31.9278 3.5 30.7989 3.5C29.6701 3.5 28.5529 3.72821 27.5144 4.17093C26.4796 4.6121 25.5443 5.25721 24.7643 6.06773L22.8231 8.15828C22.7416 8.24605 22.6499 8.32374 22.5499 8.3897C22.1935 8.62482 21.7759 8.75015 21.3489 8.75015C20.9219 8.75015 20.5043 8.62482 20.1479 8.3897C20.0479 8.32374 19.9562 8.24605 19.8747 8.15828L17.9294 6.0633C17.1638 5.25444 16.2415 4.60999 15.2186 4.16928C14.1939 3.72774 13.0898 3.5 11.9739 3.5ZM7.54209 1.41414C6.14244 2.0172 4.8805 2.89968 3.83371 4.00734Z" fill="#E7B7C8"/>
<path fill-rule="evenodd" clip-rule="evenodd" d="M24.2686 11.0457C24.8226 10.988 25.363 11.2421 25.672 11.7056L28.2267 15.5376H31.9239C32.7523 15.5376 33.4239 16.2092 33.4239 17.0376C33.4239 17.866 32.7523 18.5376 31.9239 18.5376H27.4239C26.9224 18.5376 26.454 18.287 26.1758 17.8697L24.7576 15.7423L22.8166 20.5947C22.5973 21.1431 22.0764 21.5118 21.4863 21.5363C20.8961 21.5609 20.3464 21.2368 20.0823 20.7084L18.013 16.5699L16.4846 18.0983C16.2033 18.3796 15.8217 18.5376 15.4239 18.5376H10.9239C10.0955 18.5376 9.42391 17.866 9.42391 17.0376C9.42391 16.2092 10.0955 15.5376 10.9239 15.5376H14.8026L17.3633 12.9769C17.7042 12.636 18.1882 12.4797 18.6642 12.557C19.1401 12.6342 19.5499 12.9355 19.7656 13.3668L21.2717 16.3792L23.0312 11.9805C23.2381 11.4633 23.7145 11.1034 24.2686 11.0457Z" fill="#E7B7C8"/>
</svg>
