<svg width="240" height="140" viewBox="0 0 240 140" fill="none" xmlns="http://www.w3.org/2000/svg">
<g clip-path="url(#clip0_477_4604)">
<path fill-rule="evenodd" clip-rule="evenodd" d="M150.714 22.4224C156.72 19.8347 163.191 18.5 169.73 18.5C176.27 18.5 182.74 19.8347 188.746 22.4224C194.752 25.01 200.166 28.7962 204.658 33.5492L204.697 33.5907L209.894 39.1881L215.092 33.5907C215.105 33.5762 215.119 33.5617 215.133 33.5473C215.144 33.5359 215.154 33.5245 215.165 33.5131C219.72 28.7666 225.188 24.9898 231.239 22.4099C237.291 19.8299 243.801 18.5 250.38 18.5C256.959 18.5 263.469 19.8299 269.521 22.4099C275.556 24.983 281.011 28.7465 285.558 33.4753C295.002 43.0247 300.36 55.8747 300.497 69.3058C300.635 82.7542 295.526 95.7268 286.257 105.471C286.22 105.51 286.182 105.549 286.144 105.587L275.898 115.833L216.813 176.845C216.484 177.185 216.118 177.488 215.723 177.749C214.184 178.764 212.381 179.305 210.537 179.305C208.693 179.305 206.89 178.764 205.351 177.749C204.956 177.488 204.59 177.185 204.261 176.845L145.176 115.833L134.93 105.587C134.887 105.544 134.845 105.501 134.803 105.456C125.618 95.7386 120.5 82.874 120.5 69.5025C120.5 56.1311 125.617 43.2668 134.802 33.5492M169.73 31.5C164.96 31.5 160.239 32.4736 155.858 34.3613C151.477 36.249 147.527 39.011 144.251 42.4782C144.251 42.4783 144.251 42.478 144.251 42.4782C137.347 49.7822 133.5 59.452 133.5 69.5025C133.5 79.5236 137.324 89.1658 144.19 96.4622L154.405 106.677C154.429 106.702 154.454 106.726 154.478 106.751L210.537 164.639L266.596 106.751C266.62 106.726 266.645 106.702 266.669 106.677L276.892 96.4548C283.797 89.1667 287.6 79.4797 287.498 69.4385C287.395 59.3713 283.374 49.7402 276.288 42.5888C276.273 42.5736 276.258 42.5583 276.243 42.543C276.233 42.5334 276.224 42.5238 276.215 42.5142C272.873 39.032 268.862 36.2612 264.422 34.3685C259.983 32.4757 255.206 31.5 250.38 31.5C245.554 31.5 240.777 32.4757 236.338 34.3685C231.914 36.2546 227.915 39.0125 224.58 42.4775L216.264 51.4334C215.911 51.8137 215.514 52.1504 215.08 52.4362C213.541 53.4515 211.738 53.9927 209.894 53.9927C208.051 53.9927 206.248 53.4515 204.709 52.4362C204.275 52.1504 203.878 51.8137 203.525 51.4334L195.191 42.4582C191.918 39.0003 187.975 36.2454 183.602 34.3613C179.221 32.4736 174.501 31.5 169.73 31.5ZM150.714 22.4224C144.709 25.01 139.294 28.7965 134.802 33.5492Z" fill="url(#paint0_linear_477_4604)"/>
<path fill-rule="evenodd" clip-rule="evenodd" d="M222.395 63.6797C224.796 63.4297 227.137 64.5308 228.476 66.5392L239.399 82.9236H255.199C258.789 82.9236 261.699 85.8338 261.699 89.4236C261.699 93.0135 258.789 95.9236 255.199 95.9236H235.92C233.747 95.9236 231.718 94.8375 230.512 93.0292L224.514 84.0317L216.25 104.69C215.3 107.067 213.043 108.664 210.485 108.771C207.928 108.877 205.546 107.472 204.402 105.183L195.582 87.5441L189.106 94.0198C187.887 95.2388 186.234 95.9236 184.51 95.9236H165.231C161.641 95.9236 158.731 93.0135 158.731 89.4236C158.731 85.8338 161.641 82.9236 165.231 82.9236H181.818L192.767 71.9749C194.244 70.4974 196.342 69.8203 198.404 70.155C200.466 70.4897 202.242 71.7954 203.176 73.6642L209.556 86.4229L217.033 67.7307C217.929 65.4895 219.994 63.9297 222.395 63.6797Z" fill="url(#paint1_linear_477_4604)"/>
</g>
<defs>
<linearGradient id="paint0_linear_477_4604" x1="363.61" y1="-32.4152" x2="188.919" y2="179.557" gradientUnits="userSpaceOnUse">
<stop offset="0.0466922" stop-color="white" stop-opacity="0.3"/>
<stop offset="1" stop-color="white" stop-opacity="0"/>
</linearGradient>
<linearGradient id="paint1_linear_477_4604" x1="363.61" y1="-32.4152" x2="188.919" y2="179.557" gradientUnits="userSpaceOnUse">
<stop offset="0.0466922" stop-color="white" stop-opacity="0.3"/>
<stop offset="1" stop-color="white" stop-opacity="0"/>
</linearGradient>
<clipPath id="clip0_477_4604">
<rect width="240" height="140" rx="13" fill="white"/>
</clipPath>
</defs>
</svg>
