<svg width="240" height="140" viewBox="0 0 240 140" fill="none" xmlns="http://www.w3.org/2000/svg">
<g clip-path="url(#clip0_477_4615)">
<path d="M251.604 53.7271L213.804 12.9571C212.04 11.0696 209.52 10 207 10C204.48 10 201.96 11.0696 200.196 12.8942L162.459 53.6012C150.552 65.4925 144 81.2846 144 98.0833C144 114.882 150.552 130.674 162.459 142.565C174.366 154.457 190.179 161 207 161C223.821 161 239.634 154.457 251.541 142.565C263.448 130.674 270 114.882 270 98.0833C270 81.2846 263.448 65.4925 251.604 53.7271ZM242.595 133.694C233.082 143.195 220.419 148.48 207 148.48C193.581 148.48 180.918 143.257 171.342 133.694C161.829 124.194 156.6 111.547 156.6 98.1462C156.6 84.745 161.829 72.0987 171.468 62.4725L207 24.0304L242.595 62.5354C252.108 72.0358 257.4 84.6821 257.4 98.0833C257.4 111.485 252.171 124.131 242.595 133.631V133.694ZM206.244 123.313C199.503 123.313 193.203 120.67 188.415 115.952C183.627 111.17 181.044 104.878 181.044 98.1462C181.044 94.6858 178.209 91.8546 174.744 91.8546C171.279 91.8546 168.444 94.6858 168.444 98.1462C168.444 108.213 172.35 117.713 179.532 124.823C186.651 131.932 196.164 135.896 206.244 135.896C209.709 135.896 212.544 133.065 212.544 129.605C212.544 126.144 209.709 123.313 206.244 123.313Z" fill="url(#paint0_linear_477_4615)"/>
</g>
<defs>
<linearGradient id="paint0_linear_477_4615" x1="314.177" y1="-37.8106" x2="86.0966" y2="119.011" gradientUnits="userSpaceOnUse">
<stop offset="0.0466922" stop-color="white" stop-opacity="0.3"/>
<stop offset="1" stop-color="white" stop-opacity="0"/>
</linearGradient>
<clipPath id="clip0_477_4615">
<rect width="240" height="140" rx="13" fill="white"/>
</clipPath>
</defs>
</svg>
