<svg width="240" height="140" viewBox="0 0 240 140" fill="none" xmlns="http://www.w3.org/2000/svg">
<g clip-path="url(#clip0_477_4572)">
<path fill-rule="evenodd" clip-rule="evenodd" d="M188.245 15.5C184.655 15.5 181.745 18.4101 181.745 22C181.745 25.5899 184.655 28.5 188.245 28.5H197.961V37.4388C164.583 40.7036 138.5 68.8478 138.5 103.084C138.5 139.513 168.032 169.045 204.461 169.045C240.891 169.045 270.423 139.513 270.423 103.084C270.423 68.8478 244.34 40.7036 210.961 37.4388V28.5H220.678C224.268 28.5 227.178 25.5899 227.178 22C227.178 18.4101 224.268 15.5 220.678 15.5H204.461H188.245ZM183.427 76.582C185.956 75.4228 188.705 74.8228 191.487 74.8228C194.269 74.8228 197.018 75.4228 199.547 76.582C201.345 77.4059 203.001 78.4985 204.46 79.8183C205.92 78.4985 207.576 77.4059 209.374 76.582C211.902 75.4228 214.652 74.8228 217.434 74.8228C220.216 74.8228 222.965 75.4228 225.494 76.582C227.934 77.7004 230.113 79.3139 231.895 81.3187C233.834 83.2521 235.381 85.5438 236.449 88.0676C237.555 90.6798 238.124 93.4873 238.124 96.3236C238.124 99.16 237.555 101.967 236.449 104.58C235.351 107.175 233.746 109.525 231.728 111.493L228.58 114.64L209.723 134.575C208.495 135.873 206.787 136.609 205.001 136.609L204.995 136.609H204.995C204.938 136.609 204.489 136.613 204.033 136.568C203.375 136.502 202.497 136.327 201.553 135.855C200.721 135.438 200.148 134.942 199.892 134.712C199.672 134.514 199.451 134.292 199.349 134.19L199.324 134.164C199.281 134.122 199.239 134.078 199.198 134.035L180.34 114.1L177.161 110.92C177.11 110.869 177.06 110.818 177.011 110.765C173.278 106.776 171.201 101.517 171.201 96.0534C171.201 90.6337 173.244 85.4152 176.921 81.4378C178.721 79.3777 180.939 77.7225 183.427 76.582ZM186.699 90.0044C186.636 90.0788 186.57 90.152 186.503 90.2241C185.024 91.8047 184.201 93.8886 184.201 96.0534C184.201 98.1873 185 100.243 186.44 101.815L189.596 104.971C189.623 104.998 189.65 105.025 189.677 105.053C189.692 105.069 189.707 105.085 189.722 105.101L204.716 120.951L219.198 105.641C219.24 105.597 219.282 105.554 219.324 105.512L222.568 102.268C222.579 102.257 222.59 102.246 222.601 102.235C222.613 102.223 222.626 102.211 222.638 102.199C223.425 101.436 224.05 100.523 224.477 99.5135C224.904 98.5042 225.124 97.4195 225.124 96.3236C225.124 95.2278 224.904 94.1431 224.477 93.1338C224.05 92.1246 223.425 91.2114 222.638 90.4484C222.499 90.3135 222.366 90.1724 222.24 90.0256C221.644 89.3344 220.906 88.7799 220.077 88.3997C219.248 88.0195 218.346 87.8228 217.434 87.8228C216.521 87.8228 215.62 88.0195 214.79 88.3997C213.961 88.7799 213.223 89.3344 212.628 90.0256C212.523 90.1474 212.414 90.2653 212.3 90.3789L209.597 93.0817L209.588 93.0905L209.588 93.0905C209.524 93.1562 209.147 93.54 208.74 93.8652C208.344 94.1822 206.806 95.391 204.46 95.391C202.115 95.391 200.576 94.1822 200.18 93.8652C199.773 93.5399 199.396 93.1559 199.332 93.0905L199.324 93.0817L196.621 90.3789C196.507 90.2653 196.398 90.1474 196.293 90.0256C195.697 89.3344 194.96 88.7799 194.13 88.3997C193.301 88.0195 192.399 87.8228 191.487 87.8228C190.575 87.8228 189.673 88.0195 188.844 88.3997C188.023 88.776 187.292 89.3231 186.699 90.0044ZM151.5 103.084C151.5 73.8342 175.212 50.1226 204.461 50.1226C233.711 50.1226 257.423 73.8342 257.423 103.084C257.423 132.334 233.711 156.045 204.461 156.045C175.212 156.045 151.5 132.334 151.5 103.084Z" fill="url(#paint0_linear_477_4572)"/>
</g>
<defs>
<linearGradient id="paint0_linear_477_4572" x1="316.676" y1="-33.1166" x2="147.171" y2="124.755" gradientUnits="userSpaceOnUse">
<stop offset="0.0466922" stop-color="white" stop-opacity="0.3"/>
<stop offset="1" stop-color="white" stop-opacity="0"/>
</linearGradient>
<clipPath id="clip0_477_4572">
<rect width="240" height="140" rx="13" fill="white"/>
</clipPath>
</defs>
</svg>
