<svg width="240" height="140" viewBox="0 0 240 140" fill="none" xmlns="http://www.w3.org/2000/svg">
<g clip-path="url(#clip0_477_4540)">
<path fill-rule="evenodd" clip-rule="evenodd" d="M191 70C203.426 70 213.5 59.9264 213.5 47.5C213.5 35.0736 203.426 25 191 25C178.574 25 168.5 35.0736 168.5 47.5C168.5 59.9264 178.574 70 191 70ZM191 83C206.099 83 218.997 73.5733 224.128 60.2842C224.897 60.4259 225.69 60.5 226.5 60.5H249V152.833H133V60.5H155.5C156.31 60.5 157.103 60.4259 157.872 60.2842C163.003 73.5733 175.901 83 191 83ZM191 12C171.394 12 155.5 27.8939 155.5 47.5H131.833C128.698 47.5094 125.693 48.7591 123.476 50.9762C121.259 53.1934 120.009 56.1978 120 59.3333V154C120.009 157.136 121.259 160.14 123.476 162.357C125.693 164.574 128.698 165.824 131.833 165.833H250.167C253.302 165.824 256.307 164.574 258.524 162.357C260.741 160.14 261.991 157.136 262 154V59.3333C261.991 56.1978 260.741 53.1934 258.524 50.9762C256.307 48.7591 253.302 47.5094 250.167 47.5H226.5C226.5 27.8939 210.606 12 191 12ZM203.425 35.0752C199.465 36.6409 195.605 38.442 191.864 40.4683C191.575 40.6248 191.287 40.7826 191 40.9417C190.219 41.3742 189.443 41.8165 188.673 42.2686C188.065 42.6258 187.46 42.9891 186.858 43.3585C186.789 43.4243 186.722 43.4917 186.656 43.5607C186.189 44.052 185.813 44.6229 185.545 45.2472C185.488 45.3806 185.436 45.516 185.39 45.653C185.187 46.2468 185.083 46.8708 185.083 47.5002C185.083 48.2748 185.24 49.0413 185.545 49.7532C185.851 50.4651 186.297 51.1077 186.858 51.6419C187.392 52.2028 188.035 52.6493 188.747 52.9544C189.459 53.2595 190.225 53.4169 191 53.4169C191.629 53.4169 192.253 53.313 192.847 53.1103C192.984 53.0636 193.119 53.0116 193.253 52.9544C193.877 52.6869 194.448 52.3106 194.939 51.8438C195.008 51.7782 195.076 51.7109 195.141 51.6419C195.511 51.0404 195.874 50.4353 196.231 49.8268C196.683 49.0568 197.126 48.2811 197.558 47.5002C197.717 47.2128 197.875 46.9247 198.032 46.6359C200.058 42.8951 201.859 39.0347 203.425 35.0752Z" fill="url(#paint0_linear_477_4540)"/>
</g>
<defs>
<linearGradient id="paint0_linear_477_4540" x1="311.787" y1="-36.7077" x2="141.534" y2="133.653" gradientUnits="userSpaceOnUse">
<stop offset="0.0466922" stop-color="white" stop-opacity="0.3"/>
<stop offset="1" stop-color="white" stop-opacity="0"/>
</linearGradient>
<clipPath id="clip0_477_4540">
<rect width="240" height="140" rx="13" fill="white"/>
</clipPath>
</defs>
</svg>
