<svg width="41" height="41" viewBox="0 0 41 41" fill="none" xmlns="http://www.w3.org/2000/svg">
<path d="M4.60118 36.4012C2.94191 34.6939 2.01367 32.4069 2.01367 30.0262C2.01367 27.6454 2.94191 25.3585 4.60118 23.6512L23.6512 4.60118C25.3585 2.94191 27.6454 2.01367 30.0262 2.01367C32.4069 2.01367 34.6939 2.94191 36.4012 4.60118V4.60118C38.0604 6.30847 38.9887 8.59542 38.9887 10.9762C38.9887 13.3569 38.0604 15.6439 36.4012 17.3512L17.3512 36.4012C15.6439 38.0604 13.3569 38.9887 10.9762 38.9887C8.59542 38.9887 6.30847 38.0604 4.60118 36.4012V36.4012Z" stroke="#205072" stroke-width="3" stroke-miterlimit="10" stroke-linecap="round" stroke-linejoin="round"/>
<path d="M14.5 14.5L26.8 26.8" stroke="#205072" stroke-width="3" stroke-miterlimit="10" stroke-linecap="round" stroke-linejoin="round"/>
</svg>
