<svg width="42" height="42" viewBox="0 0 42 42" fill="none" xmlns="http://www.w3.org/2000/svg">
<path d="M31 33C31.8284 33 32.5 33.7899 32.5 34.5C32.5 35.2101 31.8284 36 31 36C30.1716 36 29.5 35.2101 29.5 34.5C29.5 33.7899 30.1716 33 31 33Z" fill="#205072"/>
<path d="M29.5 30.5V27.5C29.5 26.6716 30.1716 26 31 26C31.8284 26 32.5 26.6716 32.5 27.5V30.5C32.5 31.3284 31.8284 32 31 32C30.1716 32 29.5 31.3284 29.5 30.5Z" fill="#205072"/>
<path fill-rule="evenodd" clip-rule="evenodd" d="M30.0262 0.512695C27.255 0.512695 24.593 1.59315 22.6058 3.52452L22.5905 3.53957L3.54049 22.5906L3.5255 22.6058C1.59413 24.593 0.513672 27.255 0.513672 30.0262C0.513672 32.7949 1.59222 35.4547 3.5204 37.4414C3.53194 37.4534 3.54373 37.4652 3.55575 37.4769C5.54302 39.4082 8.205 40.4887 10.9762 40.4887C13.7474 40.4887 16.4093 39.4082 18.3966 37.4769L18.4118 37.4619L21.1714 34.7023C22.6684 38.6745 26.5042 41.5 31 41.5C36.799 41.5 41.5 36.799 41.5 31C41.5 26.5039 38.6741 22.6679 34.7016 21.1711L37.4618 18.4109L37.4769 18.3956C39.4082 16.4084 40.4887 13.7464 40.4887 10.9752C40.4887 8.20402 39.4082 5.54204 37.4769 3.55477C37.4669 3.54455 37.4568 3.53446 37.4466 3.52452C35.4593 1.59315 32.7974 0.512695 30.0262 0.512695ZM31.1293 20.5008L35.3327 16.2974C36.7153 14.8709 37.4887 12.9621 37.4887 10.9752C37.4887 8.99199 36.7182 7.08665 35.3404 5.661C33.9147 4.28316 32.0094 3.5127 30.0262 3.5127C28.0392 3.5127 26.1305 4.28606 24.7039 5.66877L16.2472 14.1259L24.7117 22.5904C26.4646 21.2776 28.6415 20.5 31 20.5C31.0432 20.5 31.0862 20.5003 31.1293 20.5008ZM5.66976 24.7039L14.126 16.2473L22.5904 24.7117C21.2776 26.4646 20.5 28.6415 20.5 31C20.5 31.0435 20.5003 31.0869 20.5008 31.1303L16.2984 35.3327C14.8718 36.7154 12.9631 37.4887 10.9762 37.4887C8.99297 37.4887 7.08763 36.7182 5.66198 35.3404C4.28414 33.9148 3.51367 32.0094 3.51367 30.0262C3.51367 28.0393 4.28704 26.1305 5.66976 24.7039ZM23.5 31C23.5 26.8579 26.8579 23.5 31 23.5C35.1421 23.5 38.5 26.8579 38.5 31C38.5 35.1421 35.1421 38.5 31 38.5C26.8579 38.5 23.5 35.1421 23.5 31Z" fill="#205072"/>
</svg>
