<svg width="40" height="43" viewBox="0 0 40 43" fill="none" xmlns="http://www.w3.org/2000/svg">
<path d="M24.5449 8.40171C24.7648 7.84572 24.6334 7.21225 24.2107 6.78948C23.7879 6.36671 23.1544 6.23538 22.5984 6.45523C21.059 7.06394 19.5756 7.80565 18.165 8.67194C18.0753 8.72701 17.9917 8.79136 17.9155 8.86393C17.6262 9.13946 17.3959 9.47087 17.2385 9.83808C17.0811 10.2053 17 10.6006 17 11.0001C17 11.3997 17.0811 11.795 17.2385 12.1622C17.3911 12.5182 17.6122 12.8406 17.8892 13.111C18.1596 13.3879 18.4819 13.609 18.8379 13.7616C19.2051 13.919 19.6005 14.0001 20 14.0001C20.3995 14.0001 20.7949 13.919 21.1621 13.7616C21.5293 13.6042 21.8607 13.3739 22.1362 13.0846L22.3282 12.8351C23.1945 11.4245 23.9362 9.94111 24.5449 8.40171Z" fill="white"/>
<path fill-rule="evenodd" clip-rule="evenodd" d="M5 42.5H35L35.0045 42.5C36.1957 42.4964 37.3371 42.0217 38.1794 41.1794C39.0217 40.3371 39.4964 39.1957 39.5 38.0045L39.5 38L39.5 14L39.5 13.9955C39.4964 12.8043 39.0217 11.6629 38.1794 10.8206C37.3371 9.97834 36.1957 9.50356 35.0045 9.5H30.3937C29.6658 4.41156 25.2897 0.5 20 0.5C14.7103 0.5 10.3342 4.41156 9.60633 9.5H5L4.99552 9.50001C3.80433 9.50356 2.66294 9.97834 1.82064 10.8206C0.97834 11.6629 0.503558 12.8043 0.5 13.9955V38L0.500007 38.0045C0.503564 39.1957 0.97834 40.3371 1.82064 41.1794C2.66294 42.0217 3.80433 42.4964 4.99552 42.5L5 42.5ZM12.5 11C12.5 6.85786 15.8579 3.5 20 3.5C24.1421 3.5 27.5 6.85786 27.5 11C27.5 15.1421 24.1421 18.5 20 18.5C15.8579 18.5 12.5 15.1421 12.5 11ZM9.60633 12.5C10.2641 17.0985 13.9015 20.7359 18.5 21.3937V39.5H5.00241C4.60451 39.4983 4.22336 39.3394 3.94196 39.058C3.66051 38.7766 3.50168 38.3954 3.5 37.9974V14.0026C3.50168 13.6046 3.66051 13.2234 3.94196 12.942C4.22341 12.6605 4.60465 12.5017 5.00263 12.5H9.60633ZM21.5 21.3937V39.5H34.9976C35.3955 39.4983 35.7766 39.3394 36.058 39.058C36.3394 38.7766 36.4983 38.3955 36.5 37.9976V14.0024C36.4983 13.6045 36.3394 13.2234 36.058 12.942C35.7766 12.6605 35.3954 12.5017 34.9974 12.5H30.3937C29.7359 17.0985 26.0985 20.7359 21.5 21.3937Z" fill="white"/>
</svg>
