<svg xmlns="http://www.w3.org/2000/svg" xmlns:xlink="http://www.w3.org/1999/xlink" width="344.922" height="217.567" viewBox="0 0 344.922 217.567"><defs><radialGradient id="a" cx="0.5" cy="0.5" r="0.5" gradientUnits="objectBoundingBox"><stop offset="0" stop-opacity="0.302"/><stop offset="0.882" stop-opacity="0.024"/><stop offset="1" stop-opacity="0"/></radialGradient><clipPath id="d"><path d="M0,0H58.623a0,0,0,0,1,0,0V39.973a12,12,0,0,1-12,12H12a12,12,0,0,1-12-12V0A0,0,0,0,1,0,0Z" transform="translate(0 0.001)" fill="#19ad87"/></clipPath><filter id="e" x="0" y="116.386" width="101.106" height="101.181" filterUnits="userSpaceOnUse"><feOffset dx="13" dy="13" input="SourceAlpha"/><feGaussianBlur stdDeviation="6.5" result="f"/><feFlood flood-opacity="0.2"/><feComposite operator="in" in2="f"/><feComposite in="SourceGraphic"/></filter><filter id="g" x="183.88" y="0" width="108.593" height="107.793" filterUnits="userSpaceOnUse"><feOffset dx="13" dy="13" input="SourceAlpha"/><feGaussianBlur stdDeviation="6.5" result="h"/><feFlood flood-opacity="0.2"/><feComposite operator="in" in2="h"/><feComposite in="SourceGraphic"/></filter></defs><g transform="translate(4.922 6.5)"><rect width="340" height="200" fill="#fff" opacity="0"/><ellipse cx="117.048" cy="6.5" rx="117.048" ry="6.5" transform="translate(1 186.773)" opacity="0.6" fill="url(#a)"/><g transform="translate(12.852 24.713)"><g transform="translate(74.23 144.59)"><path d="M599.957,439.427a3.739,3.739,0,0,1-2.255-2.851L595.92,418.1H553.753l-1.781,18.479a3.74,3.74,0,0,1-2.258,2.851c-1.9.593-6.865,1.727-6.865,1.727l1.841,1.1,28.661-.093h2.969l27.572.073,3-1.076S601.859,440.02,599.957,439.427Z" transform="translate(-542.786 -418.097)" fill="#ccc"/><path d="M561.862,424.476h43.4l-.614-6.379H562.477Z" transform="translate(-551.51 -416.817)" fill="#7b7e87"/><rect width="64.075" height="2.66" transform="translate(0 22.958)" fill="#bdbebf"/></g><path d="M7.685,0H207.508a7.685,7.685,0,0,1,7.685,7.685V128.091H0V7.685A7.685,7.685,0,0,1,7.685,0Z" transform="translate(0 -0.001)" fill="#3b3d47"/><path d="M0,0H215.194V10.247a7.685,7.685,0,0,1-7.685,7.685H7.685A7.685,7.685,0,0,1,0,10.247Z" transform="translate(0 128.09)" fill="#ccc"/><rect width="197.301" height="110.256" rx="2" transform="translate(8.946 8.845)" fill="#fff"/><g transform="translate(8.946 8.845)"><g transform="translate(0 0)"><g transform="translate(0.02 15.492)" fill="#ebedf2"><path d="M 188.4937591552734 93.78729248046875 L 8.767157554626465 93.78729248046875 C 6.636382102966309 93.78729248046875 4.644731998443604 93.18754577636719 3.159032106399536 92.09854888916016 C 1.766757130622864 91.07801818847656 1.000007152557373 89.75067138671875 1.000007152557373 88.36102294921875 L 1.000007152557373 0.9999962449073792 L 196.2608642578125 0.9999962449073792 L 196.2608642578125 88.36102294921875 C 196.2608642578125 89.75067138671875 195.4941101074219 91.07801818847656 194.1018524169922 92.09854888916016 C 192.6161499023438 93.18754577636719 190.62451171875 93.78729248046875 188.4937591552734 93.78729248046875 Z" stroke="none"/><path d="M 1.999984741210938 1.999984741210938 L 1.999984741210938 88.36101531982422 C 1.999984741210938 89.79499053955078 3.0965576171875 90.81285858154297 3.750198364257812 91.2919921875 C 5.046646118164062 92.24227905273438 6.875244140625 92.78727722167969 8.767135620117188 92.78727722167969 L 188.4937438964844 92.78727722167969 C 190.3856353759766 92.78727722167969 192.2142486572266 92.24227905273438 193.5106353759766 91.2919921875 C 194.164306640625 90.81288146972656 195.2608489990234 89.79499053955078 195.2608489990234 88.36101531982422 L 195.2608489990234 1.999984741210938 L 1.999984741210938 1.999984741210938 M -1.52587890625e-05 -1.52587890625e-05 L 197.2608489990234 -1.52587890625e-05 L 197.2608489990234 88.36101531982422 C 197.2608489990234 91.91011810302734 193.335693359375 94.78727722167969 188.4937438964844 94.78727722167969 L 8.767135620117188 94.78727722167969 C 3.925201416015625 94.78727722167969 -1.52587890625e-05 91.91011810302734 -1.52587890625e-05 88.36101531982422 L -1.52587890625e-05 -1.52587890625e-05 Z" stroke="none" fill="#fff"/></g><path d="M1,0H196.3a1,1,0,0,1,1,1V15.475a0,0,0,0,1,0,0H0a0,0,0,0,1,0,0V1A1,1,0,0,1,1,0Z" fill="#3f51b5"/><rect width="197.301" height="2.66" transform="translate(0 12.815)" fill="rgba(36,37,44,0.6)" opacity="0.1"/><path d="M1.281,0H24.337a1.281,1.281,0,1,1,0,2.562H1.281A1.281,1.281,0,1,1,1.281,0Z" transform="translate(23.077 6.525)" fill="#f8f8fa" opacity="0.4"/><path d="M3.843,0A3.843,3.843,0,1,1,0,3.843,3.843,3.843,0,0,1,3.843,0Z" transform="translate(7.706 3.964)" fill="#f8f8fa" opacity="0.7"/><g transform="translate(-23.036 5.245)"><path d="M2.562,0H7.685a2.562,2.562,0,1,1,0,5.124H2.562A2.562,2.562,0,1,1,2.562,0Z" transform="translate(210.542)" fill="#19ad87"/><path d="M2.562,0H7.685a2.562,2.562,0,1,1,0,5.124H2.562A2.562,2.562,0,1,1,2.562,0Z" transform="translate(188.294)" fill="#f8f8fa" opacity="0.7"/></g><g transform="translate(61.415 18.134)"><g transform="translate(0 0)"><g transform="translate(0)"><rect width="135.886" height="89.462" fill="#fff"/></g><g transform="translate(-18025.117 8.886)"><g transform="translate(47.99 0)"><path d="M1.921,0H31.382a1.921,1.921,0,1,1,0,3.843H1.921A1.921,1.921,0,1,1,1.921,0Z" transform="translate(18034.176 53.799)" fill="#c3c4c7" opacity="0.8"/><path d="M1.921,0H37.787a1.921,1.921,0,1,1,0,3.843H1.921A1.921,1.921,0,1,1,1.921,0Z" transform="translate(18034.176 46.113)" fill="#c3c4c7" opacity="0.8"/><path d="M1.921,0H23.7a1.921,1.921,0,1,1,0,3.843H1.921A1.921,1.921,0,1,1,1.921,0Z" transform="translate(18034.176 38.428)" fill="#9a9da2" opacity="0.8"/><g transform="translate(18034.176)"><path d="M3.843,0h33.3a3.843,3.843,0,0,1,3.843,3.843V26.9a3.843,3.843,0,0,1-3.843,3.843H3.843A3.843,3.843,0,0,1,0,26.9V3.843A3.843,3.843,0,0,1,3.843,0Z" transform="translate(0 0)" fill="#f05a2b"/><g transform="translate(11.354 6.347)" opacity="0.4"><rect width="17.893" height="17.892" transform="translate(0.157 0)" fill="rgba(255,255,255,0)"/><g transform="translate(0 0.058)"><ellipse cx="1.934" cy="1.934" rx="1.934" ry="1.934" transform="translate(5.235 5.019)" fill="#fff"/><path d="M1761.09,2091.975h-10.242a3.853,3.853,0,0,0-3.848,3.848v10.237a3.852,3.852,0,0,0,3.848,3.848h10.238a3.851,3.851,0,0,0,3.847-3.848v-10.242A3.848,3.848,0,0,0,1761.09,2091.975Zm-10.242,2.562h10.242a1.283,1.283,0,0,1,1.281,1.281v5.126l-1.841-1.1a1.277,1.277,0,0,0-1.334.012l-9.634,5.984v-10.015A1.288,1.288,0,0,1,1750.848,2094.537Zm10.238,12.809h-9.1l7.9-4.9,2.486,1.489v2.13A1.287,1.287,0,0,1,1761.086,2107.346Z" transform="translate(-1747 -2091.975)" fill="#fff"/></g></g></g></g><g transform="translate(0 0)"><path d="M1.921,0H31.382a1.921,1.921,0,1,1,0,3.843H1.921A1.921,1.921,0,1,1,1.921,0Z" transform="translate(18034.176 53.799)" fill="#c3c4c7" opacity="0.8"/><path d="M1.921,0H37.787a1.921,1.921,0,1,1,0,3.843H1.921A1.921,1.921,0,1,1,1.921,0Z" transform="translate(18034.176 46.113)" fill="#c3c4c7" opacity="0.8"/><path d="M1.921,0H23.7a1.921,1.921,0,1,1,0,3.843H1.921A1.921,1.921,0,1,1,1.921,0Z" transform="translate(18034.176 38.428)" fill="#9a9da2" opacity="0.8"/><g transform="translate(18034.176)"><path d="M3.843,0h33.3a3.843,3.843,0,0,1,3.843,3.843V26.9a3.843,3.843,0,0,1-3.843,3.843H3.843A3.843,3.843,0,0,1,0,26.9V3.843A3.843,3.843,0,0,1,3.843,0Z" transform="translate(0 0)" fill="#9c27b0"/><g transform="translate(11.354 6.347)" opacity="0.4"><rect width="17.893" height="17.892" transform="translate(0.141 0)" fill="rgba(255,255,255,0)"/><g transform="translate(0 0.058)"><ellipse cx="1.934" cy="1.934" rx="1.934" ry="1.934" transform="translate(5.219 5.019)" fill="#fff"/><path d="M1761.09,2091.975h-10.242a3.853,3.853,0,0,0-3.848,3.848v10.237a3.852,3.852,0,0,0,3.848,3.848h10.238a3.851,3.851,0,0,0,3.847-3.848v-10.242A3.848,3.848,0,0,0,1761.09,2091.975Zm-10.242,2.562h10.242a1.283,1.283,0,0,1,1.281,1.281v5.126l-1.841-1.1a1.277,1.277,0,0,0-1.334.012l-9.634,5.984v-10.015A1.288,1.288,0,0,1,1750.848,2094.537Zm10.238,12.809h-9.1l7.9-4.9,2.486,1.489v2.13A1.287,1.287,0,0,1,1761.086,2107.346Z" transform="translate(-1747 -2091.975)" fill="#fff"/></g></g></g></g></g></g></g><g transform="translate(0 15.475)"><g transform="translate(0 0)"><path d="M0,0H17.893a0,0,0,0,1,0,0V94.782a0,0,0,0,1,0,0H2a2,2,0,0,1-2-2V0A0,0,0,0,1,0,0Z" fill="#ebedf2"/><path d="M2.562,2.562V92.225H15.371V2.562H2.562M0,0H17.933V94.787H2.562A2.562,2.562,0,0,1,0,92.225Z" transform="translate(0.02 0.017)" fill="#fff"/><path d="M0,0H17.933V15.371H0Z" transform="translate(0.02 0.017)" fill="#f8f8fa"/><path d="M0,0H2.562V15.371H0Z" transform="translate(0.02 0.017)" fill="#5c6edb"/><path d="M2.562,0A2.562,2.562,0,1,1,0,2.562,2.562,2.562,0,0,1,2.562,0Z" transform="translate(6.425 5.14)" fill="#545762"/><path d="M2.562,0A2.562,2.562,0,1,1,0,2.562,2.562,2.562,0,0,1,2.562,0Z" transform="translate(6.425 66.625)" fill="#9a9da2"/><path d="M2.562,0A2.562,2.562,0,1,1,0,2.562,2.562,2.562,0,0,1,2.562,0Z" transform="translate(6.425 51.254)" fill="#9a9da2"/><path d="M2.562,0A2.562,2.562,0,1,1,0,2.562,2.562,2.562,0,0,1,2.562,0Z" transform="translate(6.425 35.883)" fill="#9a9da2"/><path d="M2.562,0A2.562,2.562,0,1,1,0,2.562,2.562,2.562,0,0,1,2.562,0Z" transform="translate(6.425 20.512)" fill="#9a9da2"/><path d="M0,0H14.09V2.562H0Z" transform="translate(2.582 15.389)" fill="#d6d8dd"/></g><rect width="41.104" height="92.122" transform="translate(17.893 0)" fill="#f8f8fa"/><rect width="2.418" height="94.782" transform="translate(58.997 0)" fill="#d6d8dd"/><path d="M2.562,0A2.562,2.562,0,1,1,0,2.562,2.562,2.562,0,0,1,2.562,0Z" transform="translate(26.919 41.006)" fill="#c3c4c7"/><path d="M1.281,0H8.966a1.281,1.281,0,1,1,0,2.562H1.281A1.281,1.281,0,1,1,1.281,0Z" transform="translate(34.605 42.287)" fill="#9a9da2"/><path d="M2.562,0A2.562,2.562,0,1,1,0,2.562,2.562,2.562,0,0,1,2.562,0Z" transform="translate(26.919 29.478)" fill="#c3c4c7"/><path d="M1.281,0H8.966a1.281,1.281,0,1,1,0,2.562H1.281A1.281,1.281,0,1,1,1.281,0Z" transform="translate(34.605 30.759)" fill="#9a9da2"/><path d="M2.562,0A2.562,2.562,0,1,1,0,2.562,2.562,2.562,0,0,1,2.562,0Z" transform="translate(26.919 17.95)" fill="#c3c4c7"/><path d="M1.281,0H8.966a1.281,1.281,0,1,1,0,2.562H1.281A1.281,1.281,0,1,1,1.281,0Z" transform="translate(34.605 19.231)" fill="#9a9da2"/><path d="M2.562,0A2.562,2.562,0,1,1,0,2.562,2.562,2.562,0,0,1,2.562,0Z" transform="translate(26.919 6.422)" fill="#c3c4c7"/><path d="M1.281,0H8.966a1.281,1.281,0,1,1,0,2.562H1.281A1.281,1.281,0,1,1,1.281,0Z" transform="translate(34.605 7.703)" fill="#9a9da2"/><g transform="translate(21.796 12.826)"><g transform="translate(0 0)"><path d="M3.843,0H26.9a3.843,3.843,0,0,1,3.843,3.843v7.685A3.843,3.843,0,0,1,26.9,15.371H3.843A3.843,3.843,0,0,1,0,11.528V3.843A3.843,3.843,0,0,1,3.843,0Z" transform="translate(0 0)" fill="#ebedf2"/><path d="M3.843,2.562A1.282,1.282,0,0,0,2.562,3.843v7.685a1.282,1.282,0,0,0,1.281,1.281H26.9a1.282,1.282,0,0,0,1.281-1.281V3.843A1.282,1.282,0,0,0,26.9,2.562H3.843M3.843,0H26.9a3.843,3.843,0,0,1,3.843,3.843v7.685A3.843,3.843,0,0,1,26.9,15.371H3.843A3.843,3.843,0,0,1,0,11.528V3.843A3.843,3.843,0,0,1,3.843,0Z" transform="translate(0 0)" fill="#5c6edb"/><g transform="translate(5.043 -6500.614)"><g transform="translate(0)"><ellipse cx="2.66" cy="2.539" rx="2.66" ry="2.539" transform="translate(0 6505.681)" fill="#9a9da2"/><rect width="10.155" height="2.418" rx="1.209" transform="translate(7.737 6507.132)" fill="#545762" opacity="0.7"/></g></g></g></g></g></g></g></g><ellipse cx="45.384" cy="3.141" rx="45.384" ry="3.141" transform="translate(70.397 192.029)" fill="url(#a)"/><g transform="translate(0 -13.354)"><ellipse cx="71.465" cy="6.5" rx="71.465" ry="6.5" transform="translate(195.352 200)" opacity="0.6" fill="url(#a)"/><path d="M0,0H142.93V85.654a6.292,6.292,0,0,1-6.352,6.229H6.352A6.292,6.292,0,0,1,0,85.654Z" transform="translate(195.352 114.688)" fill="#1e1e1e"/><path d="M8.167,0H134.762a8.167,8.167,0,0,1,8.167,8.167v8.167H0V8.167A8.167,8.167,0,0,1,8.167,0Z" transform="translate(195.352 98.354)" fill="#373739"/><path d="M2.552,0A2.552,2.552,0,1,1,0,2.552,2.552,2.552,0,0,1,2.552,0Z" transform="translate(325.009 104.479)" fill="#fff"/><path d="M2.552,0A2.552,2.552,0,1,1,0,2.552,2.552,2.552,0,0,1,2.552,0Z" transform="translate(315.82 104.479)" fill="#fff"/><path d="M2.552,0A2.552,2.552,0,1,1,0,2.552,2.552,2.552,0,0,1,2.552,0Z" transform="translate(306.632 104.479)" fill="#fff"/><path d="M1.531,0h5.1a1.531,1.531,0,1,1,0,3.063h-5.1A1.531,1.531,0,1,1,1.531,0Z" transform="translate(263.753 105.5)" fill="#fff" opacity="0.6"/><path d="M1.531,0H14.8a1.531,1.531,0,1,1,0,3.063H1.531A1.531,1.531,0,1,1,1.531,0Z" transform="translate(243.335 105.5)" fill="#fff" opacity="0.6"/><path d="M1.531,0H8.678a1.531,1.531,0,1,1,0,3.063H1.531A1.531,1.531,0,1,1,1.531,0Z" transform="translate(229.042 105.5)" fill="#fff" opacity="0.6"/><path d="M1.531,0H8.678a1.531,1.531,0,1,1,0,3.063H1.531A1.531,1.531,0,1,1,1.531,0Z" transform="translate(214.749 105.5)" fill="#fff" opacity="0.6"/><path d="M3.573,0A3.573,3.573,0,1,1,0,3.573,3.573,3.573,0,0,1,3.573,0Z" transform="translate(202.498 103.457)" fill="#42a2e8"/><path d="M0,0H17.356V91.883H8.167A8.167,8.167,0,0,1,0,83.716Z" transform="translate(195.352 114.688)" fill="#333"/><path d="M2.552,0A2.552,2.552,0,1,1,0,2.552,2.552,2.552,0,0,1,2.552,0Z" transform="translate(201.477 162.672)" fill="#fff" opacity="0.4"/><path d="M2.552,0A2.552,2.552,0,1,1,0,2.552,2.552,2.552,0,0,1,2.552,0Z" transform="translate(201.477 152.461)" fill="#fff" opacity="0.4"/><path d="M2.552,0A2.552,2.552,0,1,1,0,2.552,2.552,2.552,0,0,1,2.552,0Z" transform="translate(201.477 142.254)" fill="#fff" opacity="0.4"/><path d="M2.552,0A2.552,2.552,0,1,1,0,2.552,2.552,2.552,0,0,1,2.552,0Z" transform="translate(201.477 132.043)" fill="#fff" opacity="0.4"/><path d="M2.552,0A2.552,2.552,0,1,1,0,2.552,2.552,2.552,0,0,1,2.552,0Z" transform="translate(201.477 121.836)" fill="#fff"/><path d="M2.552,0A2.552,2.552,0,1,1,0,2.552,2.552,2.552,0,0,1,2.552,0Z" transform="translate(201.477 183.09)" fill="#fff" opacity="0.4"/><path d="M2.552,0A2.552,2.552,0,1,1,0,2.552,2.552,2.552,0,0,1,2.552,0Z" transform="translate(201.477 172.881)" fill="#fff" opacity="0.4"/><path d="M0,0H40.837V91.883H0Z" transform="translate(212.708 114.688)" fill="#252526"/><path d="M1.531,0h5.1a1.531,1.531,0,1,1,0,3.063h-5.1A1.531,1.531,0,1,1,1.531,0Z" transform="translate(228.021 144.297)" fill="#fff" opacity="0.6"/><path d="M1.531,0A1.531,1.531,0,1,1,0,1.531,1.531,1.531,0,0,1,1.531,0Z" transform="translate(221.896 144.297)" fill="#fff" opacity="0.6"/><path d="M1.531,0h11.23a1.531,1.531,0,1,1,0,3.063H1.531A1.531,1.531,0,1,1,1.531,0Z" transform="translate(228.021 137.146)" fill="#fff" opacity="0.6"/><path d="M1.531,0A1.531,1.531,0,1,1,0,1.531,1.531,1.531,0,0,1,1.531,0Z" transform="translate(221.896 137.146)" fill="#fff" opacity="0.6"/><path d="M1.531,0H10.72a1.531,1.531,0,1,1,0,3.063H1.531A1.531,1.531,0,1,1,1.531,0Z" transform="translate(228.021 130)" fill="#fff" opacity="0.6"/><path d="M1.531,0A1.531,1.531,0,1,1,0,1.531,1.531,1.531,0,0,1,1.531,0Z" transform="translate(221.896 130)" fill="#fff" opacity="0.6"/><path d="M1.531,0h5.1a1.531,1.531,0,1,1,0,3.063h-5.1A1.531,1.531,0,1,1,1.531,0Z" transform="translate(218.833 122.855)" fill="#fff" opacity="0.6"/><path d="M1.531,0h5.1a1.531,1.531,0,1,1,0,3.063h-5.1A1.531,1.531,0,1,1,1.531,0Z" transform="translate(234.147 187.172)" fill="#fff" opacity="0.6"/><path d="M1.531,0A1.531,1.531,0,1,1,0,1.531,1.531,1.531,0,0,1,1.531,0Z" transform="translate(228.021 187.172)" fill="#fff" opacity="0.6"/><path d="M1.531,0h11.23a1.531,1.531,0,1,1,0,3.063H1.531A1.531,1.531,0,1,1,1.531,0Z" transform="translate(234.147 180.027)" fill="#fff" opacity="0.6"/><path d="M1.531,0A1.531,1.531,0,1,1,0,1.531,1.531,1.531,0,0,1,1.531,0Z" transform="translate(228.021 180.027)" fill="#fff" opacity="0.6"/><path d="M1.531,0H10.72a1.531,1.531,0,1,1,0,3.063H1.531A1.531,1.531,0,1,1,1.531,0Z" transform="translate(234.147 172.881)" fill="#fff" opacity="0.6"/><path d="M1.531,0A1.531,1.531,0,1,1,0,1.531,1.531,1.531,0,0,1,1.531,0Z" transform="translate(228.021 172.881)" fill="#fff" opacity="0.6"/><path d="M1.531,0h5.1a1.531,1.531,0,1,1,0,3.063h-5.1A1.531,1.531,0,1,1,1.531,0Z" transform="translate(228.021 165.734)" fill="#fff" opacity="0.6"/><path d="M1.531,0A1.531,1.531,0,1,1,0,1.531,1.531,1.531,0,0,1,1.531,0Z" transform="translate(221.896 165.734)" fill="#fff" opacity="0.6"/><path d="M1.531,0H10.72a1.531,1.531,0,1,1,0,3.063H1.531A1.531,1.531,0,1,1,1.531,0Z" transform="translate(228.021 158.588)" fill="#fff" opacity="0.6"/><path d="M1.531,0A1.531,1.531,0,1,1,0,1.531,1.531,1.531,0,0,1,1.531,0Z" transform="translate(221.896 158.588)" fill="#fff" opacity="0.6"/><path d="M1.531,0h5.1a1.531,1.531,0,1,1,0,3.063h-5.1A1.531,1.531,0,1,1,1.531,0Z" transform="translate(218.833 151.441)" fill="#fff" opacity="0.6"/><path d="M0,0H74.528V10.209H0Z" transform="translate(261.712 114.688)" fill="#252526"/><path d="M0,0H34.711V10.209H0Z" transform="translate(253.544 114.688)" fill="#2d2d2d"/><path d="M1.531,0H10.72a1.531,1.531,0,1,1,0,3.063H1.531A1.531,1.531,0,1,1,1.531,0Z" transform="translate(284.172 159.609)" fill="#7cc36f"/><path d="M1.531,0H10.72a1.531,1.531,0,1,1,0,3.063H1.531A1.531,1.531,0,1,1,1.531,0Z" transform="translate(267.837 159.609)" fill="#c577da"/><path d="M1.531,0h19.4a1.531,1.531,0,1,1,0,3.063H1.531A1.531,1.531,0,1,1,1.531,0Z" transform="translate(271.921 153.482)" fill="#e05849"/><path d="M1.542-.5h19.4a2.042,2.042,0,1,1,0,4.084H1.542a2.042,2.042,0,1,1,0-4.084Zm19.4,3.063a1.021,1.021,0,1,0,0-2.042H1.542a1.021,1.021,0,1,0,0,2.042Z" transform="translate(271.911 153.473)" fill="rgba(0,0,0,0)"/><path d="M1.531,0h19.4a1.531,1.531,0,1,1,0,3.063H1.531A1.531,1.531,0,1,1,1.531,0Z" transform="translate(271.921 147.359)" fill="#e05849"/><path d="M1.542-.5h19.4a2.042,2.042,0,1,1,0,4.084H1.542a2.042,2.042,0,1,1,0-4.084Zm19.4,3.063a1.021,1.021,0,1,0,0-2.042H1.542a1.021,1.021,0,1,0,0,2.042Z" transform="translate(271.911 147.348)" fill="rgba(0,0,0,0)"/><path d="M1.531,0H10.72a1.531,1.531,0,1,1,0,3.063H1.531A1.531,1.531,0,1,1,1.531,0Z" transform="translate(267.837 141.232)" fill="#c577da"/><path d="M1.531,0h19.4a1.531,1.531,0,1,1,0,3.063H1.531A1.531,1.531,0,1,1,1.531,0Z" transform="translate(306.633 135.105)" fill="#7cc36f"/><path d="M1.531,0H16.845a1.531,1.531,0,1,1,0,3.063H1.531A1.531,1.531,0,1,1,1.531,0Z" transform="translate(284.172 135.105)" fill="#e05849"/><path d="M1.531,0H10.72a1.531,1.531,0,1,1,0,3.063H1.531A1.531,1.531,0,1,1,1.531,0Z" transform="translate(267.837 135.105)" fill="#c577da"/><path d="M1.531,0H46.452a1.531,1.531,0,1,1,0,3.063H1.531A1.531,1.531,0,1,1,1.531,0Z" transform="translate(267.837 128.98)" fill="#fff" opacity="0.6"/><path d="M1.531,0h5.1a1.531,1.531,0,1,1,0,3.063h-5.1A1.531,1.531,0,1,1,1.531,0Z" transform="translate(300.507 177.986)" fill="#fff" opacity="0.6"/><path d="M1.531,0h5.1a1.531,1.531,0,1,1,0,3.063h-5.1A1.531,1.531,0,1,1,1.531,0Z" transform="translate(288.256 177.986)" fill="#7cc36f"/><path d="M1.531,0h5.1a1.531,1.531,0,1,1,0,3.063h-5.1A1.531,1.531,0,1,1,1.531,0Z" transform="translate(276.005 177.986)" fill="#fff" opacity="0.6"/><path d="M1.531,0H10.72a1.531,1.531,0,1,1,0,3.063H1.531A1.531,1.531,0,1,1,1.531,0Z" transform="translate(271.921 171.859)" fill="#fff" opacity="0.6"/><path d="M1.531,0h19.4a1.531,1.531,0,1,1,0,3.063H1.531A1.531,1.531,0,1,1,1.531,0Z" transform="translate(306.633 165.734)" fill="#e4b056"/><path d="M1.531,0H16.845a1.531,1.531,0,1,1,0,3.063H1.531A1.531,1.531,0,1,1,1.531,0Z" transform="translate(284.172 165.734)" fill="#e05849"/><path d="M1.531,0H10.72a1.531,1.531,0,1,1,0,3.063H1.531A1.531,1.531,0,1,1,1.531,0Z" transform="translate(267.837 165.734)" fill="#c577da"/><path d="M1.531,0H2.552a1.531,1.531,0,1,1,0,3.063H1.531A1.531,1.531,0,1,1,1.531,0Z" transform="translate(258.649 128.98)" fill="#fff" opacity="0.2"/><path d="M1.531,0H2.552a1.531,1.531,0,1,1,0,3.063H1.531A1.531,1.531,0,1,1,1.531,0Z" transform="translate(258.649 135.105)" fill="#fff" opacity="0.2"/><path d="M1.531,0H2.552a1.531,1.531,0,1,1,0,3.063H1.531A1.531,1.531,0,1,1,1.531,0Z" transform="translate(258.649 141.232)" fill="#fff" opacity="0.2"/><path d="M1.531,0H2.552a1.531,1.531,0,1,1,0,3.063H1.531A1.531,1.531,0,1,1,1.531,0Z" transform="translate(258.649 147.359)" fill="#fff" opacity="0.2"/><path d="M1.531,0H2.552a1.531,1.531,0,1,1,0,3.063H1.531A1.531,1.531,0,1,1,1.531,0Z" transform="translate(258.649 153.482)" fill="#fff" opacity="0.2"/><path d="M1.531,0H2.552a1.531,1.531,0,1,1,0,3.063H1.531A1.531,1.531,0,1,1,1.531,0Z" transform="translate(258.649 159.609)" fill="#fff" opacity="0.2"/><path d="M1.531,0H2.552a1.531,1.531,0,1,1,0,3.063H1.531A1.531,1.531,0,1,1,1.531,0Z" transform="translate(258.649 165.734)" fill="#fff" opacity="0.2"/><path d="M1.531,0H2.552a1.531,1.531,0,1,1,0,3.063H1.531A1.531,1.531,0,1,1,1.531,0Z" transform="translate(258.649 171.859)" fill="#fff" opacity="0.2"/><path d="M1.531,0H2.552a1.531,1.531,0,1,1,0,3.063H1.531A1.531,1.531,0,1,1,1.531,0Z" transform="translate(258.649 177.986)" fill="#fff" opacity="0.2"/><path d="M1.531,0H2.552a1.531,1.531,0,1,1,0,3.063H1.531A1.531,1.531,0,1,1,1.531,0Z" transform="translate(258.649 184.111)" fill="#fff" opacity="0.2"/><path d="M0,0H142.93V5.1A6.126,6.126,0,0,1,136.8,11.23H6.126A6.126,6.126,0,0,1,0,5.1Z" transform="translate(195.352 195.34)" fill="#0079cc"/><path d="M1.531,0A1.531,1.531,0,1,1,0,1.531,1.531,1.531,0,0,1,1.531,0Z" transform="translate(215.771 199.424)" fill="#fff"/><path d="M1.531,0A1.531,1.531,0,1,1,0,1.531,1.531,1.531,0,0,1,1.531,0Z" transform="translate(209.645 199.424)" fill="#fff"/><path d="M1.531,0A1.531,1.531,0,1,1,0,1.531,1.531,1.531,0,0,1,1.531,0Z" transform="translate(203.52 199.424)" fill="#fff"/><path d="M1.531,0A1.531,1.531,0,1,1,0,1.531,1.531,1.531,0,0,1,1.531,0Z" transform="translate(329.094 199.424)" fill="#fff"/><path d="M1.531,0A1.531,1.531,0,1,1,0,1.531,1.531,1.531,0,0,1,1.531,0Z" transform="translate(322.968 199.424)" fill="#fff"/><path d="M1.531,0h5.1a1.531,1.531,0,1,1,0,3.063h-5.1A1.531,1.531,0,1,1,1.531,0Z" transform="translate(311.737 199.424)" fill="#fff"/><path d="M1.531,0H10.72a1.531,1.531,0,1,1,0,3.063H1.531A1.531,1.531,0,1,1,1.531,0Z" transform="translate(296.423 199.424)" fill="#fff"/><path d="M1.531,0H18.887a1.531,1.531,0,1,1,0,3.063H1.531A1.531,1.531,0,1,1,1.531,0Z" transform="translate(272.942 199.424)" fill="#fff"/></g><g transform="translate(13.061 118.879)" clip-path="url(#d)"><path d="M1122.973,1232.461l-3.24-11.141h0l-2.9-9.964.006-.006-33.214-33.21h0l-3.466-3.467h0l-4.588-4.586a2.716,2.716,0,0,0-3.823,0l-11.149,11.158a2.712,2.712,0,0,0,0,3.823l4.581,4.583,36.678,36.679,21.106,6.141Z" transform="translate(-1072.855 -1166.506)" fill="rgba(36,37,44,0.4)"/></g><g transform="translate(64.166 179.051) rotate(180)"><g transform="matrix(-1, 0, 0, -1, 69.09, 185.55)" filter="url(#e)"><path d="M62.093,62.181,41.806,56.322.788,14.841a2.06,2.06,0,0,1,0-3.242L11.969.419c1.059-1.048,2.845.076,3.9,1.125l40.29,40.092,2.7,9.4h0l3.24,11.141Z" transform="translate(6.5 122.89)" fill="#f8b779"/></g><g transform="translate(0 0)"><g transform="translate(39.349 39.349)"><g transform="translate(0)"><path d="M14.978,0,0,14.98l3.468,3.466L18.446,3.47Z" fill="#f5f5f5"/></g></g><path d="M33.214,40.7,0,7.49,7.492,0,40.7,33.207Z" transform="translate(13.625 6.142)" fill="#e69a0f"/><path d="M33.216,40.7,0,7.486,7.488,0,40.7,33.21Z" transform="translate(6.137 13.632)" fill="#ffc70c"/><path d="M19.563,8.405,8.409,19.563a2.716,2.716,0,0,1-3.822,0L0,14.976,14.98,0l4.581,4.583A2.711,2.711,0,0,1,19.563,8.405Z" transform="translate(42.815 42.819)" fill="#d54354"/><path d="M12.652,12.588c-4.138,4.14-8.493,6.485-9.732,5.248l0,0L0,7.813l3.406-5.4-.313-.7L7.9,0l10,2.86C19.135,4.1,16.79,8.452,12.652,12.588Z" transform="translate(3.217 3.281)" fill="#f8b779"/><g transform="translate(0)"><path d="M11.151,3.243A11.552,11.552,0,0,1,8.216,8.207,11.583,11.583,0,0,1,3.24,11.149L0,.009.011,0Z" fill="#26272e"/></g></g></g><g transform="translate(185.459)"><g transform="translate(0)"><g transform="matrix(1, 0, 0, 1, -190.38, -6.5)" filter="url(#g)"><rect width="69.593" height="68.793" rx="34.397" transform="translate(190.38 6.5)" fill="#689f38"/></g></g></g><g transform="translate(202.766 16.965)" opacity="0.9"><path d="M217.7,382.634a6.874,6.874,0,0,0,0,13.747,7.034,7.034,0,0,0,3.027-.795,9.28,9.28,0,0,0,1.671-1.162,5.753,5.753,0,0,0,.425-.444v0c.142-.075.156-.083.84-1.286a7.236,7.236,0,0,0,.873-3.187A6.863,6.863,0,0,0,217.7,382.634Zm3.3,6.875a3.785,3.785,0,0,1-.406,1.426c-.163.286-.293.512-.387.668l-.264.267a7.322,7.322,0,0,1-.9.593,3.518,3.518,0,0,1-1.348.37,3.326,3.326,0,1,1,3.3-3.324Z" transform="translate(-200.307 -372.14)" fill="#fff"/><path d="M236.131,388.859l-.378-.951a4.358,4.358,0,0,0-.415-5.635l-1.419-1.426a4.395,4.395,0,0,0-5.545-.463l-1-.416a4.284,4.284,0,0,0-4.2-3.383h-2.006a4.291,4.291,0,0,0-4.2,3.367l-.885.364a4.372,4.372,0,0,0-5.446.531l-1.416,1.426a4.353,4.353,0,0,0-.557,5.434l-.338.805a4.313,4.313,0,0,0-3.555,4.261v2.018a4.34,4.34,0,0,0,3.428,4.237l.317.822a4.346,4.346,0,0,0,.484,5.527l1.421,1.43a4.377,4.377,0,0,0,5.321.616l.9.4a4.329,4.329,0,0,0,4.216,3.458h2a4.308,4.308,0,0,0,4.165-3.223l1.057-.409a4.37,4.37,0,0,0,5.305-.63l1.417-1.423a4.366,4.366,0,0,0,.732-5.167l.468-1.093a4.337,4.337,0,0,0,3.458-4.242v-2.018A4.3,4.3,0,0,0,236.131,388.859Zm-3.761,13.177a.752.752,0,0,1-.05,1.053l-1.417,1.426a.774.774,0,0,1-1.069.017,2.4,2.4,0,0,0-2.464-.4l-2.184.847a2.172,2.172,0,0,0-1.541,2,.763.763,0,0,1-.77.755h-2a.792.792,0,0,1-.772-.838,2.293,2.293,0,0,0-1.454-2.068l-2.059-.913a2.007,2.007,0,0,0-1.011-.259,2.17,2.17,0,0,0-1.556.642.788.788,0,0,1-1.088,0l-1.416-1.424a.785.785,0,0,1-.005-1.1l.128-.125a2.284,2.284,0,0,0,.411-2.49l-.795-2.049a2.206,2.206,0,0,0-2.032-1.54h-.139a.776.776,0,0,1-.772-.779v-2.018a.776.776,0,0,1,.772-.777h.194a2.257,2.257,0,0,0,2.045-1.476l.847-2.014a2.232,2.232,0,0,0-.352-2.531l-.09-.09a.783.783,0,0,1,0-1.1l1.417-1.428a.784.784,0,0,1,1.088,0l.1.1a2.374,2.374,0,0,0,2.479.4l2.066-.85a2.253,2.253,0,0,0,1.521-2.089.775.775,0,0,1,.77-.779h2.006a.785.785,0,0,1,.77.815,2.239,2.239,0,0,0,1.473,2.042l2.195.916a2.275,2.275,0,0,0,2.523-.359l.193-.194a.788.788,0,0,1,1.088,0l1.419,1.428a.785.785,0,0,1,0,1.1l-.22.219a2.255,2.255,0,0,0-.4,2.488l.867,2.172a2.229,2.229,0,0,0,2.087,1.537.775.775,0,0,1,.772.779V395.1a.8.8,0,0,1-.867.777,2.264,2.264,0,0,0-2.049,1.471l-.945,2.214A2.15,2.15,0,0,0,232.37,402.036Z" transform="translate(-204.78 -376.585)" fill="#fff"/></g><path d="M4689.522,17018.248a1.462,1.462,0,0,1-.282-.047,1.728,1.728,0,0,1-1.3-1.811c.042-.557.072-1.137.081-1.727a1.72,1.72,0,0,1,1.751-1.7,1.768,1.768,0,0,1,.244.021h0a1.732,1.732,0,0,1,1.452,1.73c-.008.645-.038,1.293-.089,1.938a1.732,1.732,0,0,1-1.718,1.6C4689.616,17018.254,4689.569,17018.252,4689.522,17018.248Zm-.637-7.363a1.734,1.734,0,0,1-1.281-1.375c-.1-.582-.222-1.148-.354-1.68a1.726,1.726,0,0,1,1.081-2.027l.026-.223.841.133a1.725,1.725,0,0,1,1.405,1.289c.154.633.286,1.27.4,1.906a1.727,1.727,0,0,1-1.4,2,1.618,1.618,0,0,1-.3.029A1.77,1.77,0,0,1,4688.886,17010.885Zm-2.2-7.01a1.739,1.739,0,0,1-1.127-.9c-.252-.539-.512-1.059-.782-1.572a1.723,1.723,0,0,1,.7-2.332,1.714,1.714,0,0,1,2.332.7c.3.563.6,1.148.871,1.734l.009.025a1.73,1.73,0,0,1-.91,2.264,1.752,1.752,0,0,1-.675.135A1.772,1.772,0,0,1,4686.69,17003.875Zm-3.6-6.141a1.641,1.641,0,0,1-.261-.043,1.7,1.7,0,0,1-.905-.572l-.017-.021c-.351-.428-.73-.867-1.132-1.307a1.722,1.722,0,0,1,1.533-2.871,1.709,1.709,0,0,1,1,.535c.436.469.867.965,1.272,1.465a1.72,1.72,0,0,1-.23,2.426,1.7,1.7,0,0,1-1.095.4A1.562,1.562,0,0,1,4683.09,16997.734Zm-5.57-5.1a1.741,1.741,0,0,1-.606-.287c-.457-.332-.935-.666-1.422-.977a1.724,1.724,0,0,1,1.2-3.156l.008,0a1.626,1.626,0,0,1,.654.248c.546.35,1.089.721,1.61,1.1a1.729,1.729,0,0,1,.367,2.412,1.7,1.7,0,0,1-1.127.684,1.671,1.671,0,0,1-.26.02A1.876,1.876,0,0,1,4677.521,16992.635Zm-6.436-3.566a1.1,1.1,0,0,1-.163-.047l-.025-.008c-.534-.215-1.081-.41-1.627-.59a1.723,1.723,0,0,1,.807-3.34,1.244,1.244,0,0,1,.265.064c.615.2,1.23.422,1.824.656l.021.01a1.723,1.723,0,0,1-1.1,3.254Z" transform="matrix(1, -0.017, 0.017, 1, -4704.935, -16854.396)" fill="#9a9da2" stroke="rgba(0,0,0,0)" stroke-width="1"/></g></svg>